<svg width="139" height="25" viewBox="0 0 139 25" fill="none" xmlns="http://www.w3.org/2000/svg">
<g clip-path="url(#clip0)">
<path d="M25.0005 17.73V-0.0102234H7.25293V5.24052H10.4946V3.23292H21.7588V14.4925H17.7489V7.23973H0V24.9898H17.7489V19.7362H14.5059V21.7424H3.24168V10.4829H7.25293V17.73H25.0005ZM10.4946 10.4829H14.5059V14.4925H10.4946V10.4829Z" fill="#59B8F8"/>
<path d="M48.709 13.33C48.3759 12.9935 47.9923 12.7108 47.5721 12.4924C47.364 12.383 47.1478 12.2896 46.9255 12.2131L47.0652 12.1447C47.3382 12.0044 47.5894 11.8252 47.811 11.6128C48.1785 11.2337 48.453 10.7744 48.6127 10.2712C48.7866 9.72994 48.8725 9.16428 48.8669 8.59584C48.8744 8.05259 48.7855 7.5123 48.6043 7.00009C48.4367 6.5381 48.1681 6.11932 47.818 5.77431C47.0498 5.03019 45.7621 4.51782 44.0316 4.51782H34.9532V20.6442H44.6866C45.4479 20.6567 46.2051 20.5309 46.9213 20.2728C47.5096 20.0531 48.044 19.7099 48.4884 19.2662C48.8628 18.8811 49.1488 18.4189 49.3264 17.912C49.5258 17.3548 49.626 16.767 49.6225 16.1753C49.6286 15.6317 49.5542 15.0902 49.4018 14.5684C49.2712 14.107 49.0339 13.6828 48.709 13.33ZM45.1475 17.066C44.9687 17.1986 44.7649 17.2936 44.5483 17.3452C44.2663 17.4138 43.9768 17.4466 43.6866 17.4429H38.7298V14.1649H43.7271C44.3235 14.1649 44.8165 14.3352 45.1028 14.5725C45.2776 14.717 45.4091 14.9068 45.4827 15.1212C45.5667 15.3717 45.6068 15.6347 45.6014 15.8988C45.6059 16.1328 45.5676 16.3656 45.4883 16.5857C45.4212 16.7742 45.3033 16.9404 45.1475 17.066ZM44.7285 8.60142C44.8201 8.83839 44.8674 9.09012 44.8682 9.34415C44.8728 9.62953 44.8255 9.91337 44.7285 10.1818C44.6534 10.3873 44.5331 10.5734 44.3766 10.7263C44.2452 10.8505 44.0891 10.9456 43.9184 11.0055C43.7341 11.0654 43.541 11.0942 43.3472 11.0907H38.7298V7.70792H43.0176C43.294 7.70238 43.57 7.73241 43.8388 7.79727C44.0417 7.84571 44.2303 7.94139 44.3891 8.07649C44.5418 8.22273 44.6585 8.40243 44.7299 8.60142H44.7285Z" fill="white"/>
<path d="M52.6393 20.6442H52.8516H56.5611V4.52341H52.6393V20.6442Z" fill="white"/>
<path d="M58.9411 7.84613H64.0501V20.6442H67.972V7.84613H73.1006V4.52341H58.9411V7.84613Z" fill="white"/>
<path d="M74.5056 7.84613H79.6146V20.6442H83.5364V7.84613H88.665V4.52341H74.5056V7.84613Z" fill="white"/>
<path d="M104.202 12.2717C104.586 11.6072 104.805 10.6411 104.807 9.42366C104.815 8.84364 104.757 8.26456 104.632 7.69807C104.526 7.23056 104.337 6.78597 104.073 6.38574C103.716 5.78235 103.184 5.30213 102.547 5.00918C101.871 4.68947 101.029 4.52334 100.002 4.52194H91.0451V20.6441H94.8469V14.5432H98.6402L101.702 20.6441H106.044L102.329 13.7795C102.725 13.6637 103.094 13.4709 103.416 13.2121C103.737 12.9534 104.004 12.6338 104.202 12.2717ZM100.806 10.8212C100.764 10.9052 100.704 10.9794 100.63 11.0389C100.486 11.1506 100.319 11.2305 100.142 11.2735C99.9076 11.3331 99.6667 11.3617 99.4252 11.3587H94.8664V7.84606H99.2282C99.5917 7.83193 99.9542 7.89374 100.292 8.02755C100.414 8.07842 100.526 8.1492 100.624 8.23697C100.714 8.32447 100.787 8.4276 100.84 8.54132C100.868 8.60523 100.889 8.67161 100.904 8.73957C100.97 9.05594 101.002 9.37839 100.999 9.70148C100.998 9.90506 100.979 10.1082 100.945 10.3088C100.92 10.4846 100.873 10.6567 100.806 10.8212Z" fill="white"/>
<path d="M112.261 14.285H120.571V10.8813H112.261V7.90616H120.888V4.52341H108.478V20.6442H108.691H120.988V17.2796H112.261V14.285Z" fill="white"/>
<path d="M132.768 12.2383L131.058 9.80349L127.509 4.52344H122.976L128.547 12.5008L122.627 20.6442H127.054L127.142 20.5186L130.655 15.4619L134.142 20.6442H138.658L132.768 12.2383Z" fill="white"/>
<path d="M133.628 7.30447H135.874V9.49775H138.658V4.52344H133.68V7.30447H133.628Z" fill="#59B8F8"/>
</g>
<defs>
<clipPath id="clip0">
<rect width="138.748" height="25" fill="white"/>
</clipPath>
</defs>
</svg>